<?xml version="1.0" encoding="utf-8"?>
<!-- Generator: Adobe Illustrator 17.0.0, SVG Export Plug-In . SVG Version: 6.00 Build 0)  -->
<!DOCTYPE svg PUBLIC "-//W3C//DTD SVG 1.1//EN" "http://www.w3.org/Graphics/SVG/1.1/DTD/svg11.dtd">
<svg version="1.1" id="Layer_1" xmlns="http://www.w3.org/2000/svg" xmlns:xlink="http://www.w3.org/1999/xlink" x="0px" y="0px"
	 width="708px" height="183.512px" viewBox="0 0 708 183.512" enable-background="new 0 0 708 183.512" xml:space="preserve">
<g>
	<path fill="#FFFFFF" d="M118.853,50.651c-5.808-9.68-21.781-18.876-40.173-18.876c-23.716,0-35.091,9.922-35.091,22.507
		c0,14.762,17.424,18.876,37.753,21.296c35.333,4.356,68.245,13.553,68.245,53.967c0,37.752-33.396,53.967-71.149,53.967
		c-34.606,0-61.227-10.648-73.811-41.625l26.62-13.794c7.502,18.634,27.104,26.863,47.675,26.863
		c20.086,0,38.963-7.019,38.963-25.411c0-15.972-16.698-22.506-39.205-24.926c-34.607-4.114-66.551-13.311-66.551-51.305
		c0-34.849,34.365-49.127,65.583-49.369c26.379,0,53.725,7.502,66.551,33.638L118.853,50.651z"/>
	<path fill="#FFFFFF" d="M274.458,163.909c-13.794,13.552-28.314,18.876-45.98,18.876c-34.607,0-63.405-20.813-63.405-63.163
		s28.798-63.163,63.405-63.163c16.94,0,30.008,4.84,43.077,17.667l-18.634,19.602c-7.018-6.292-15.73-9.438-23.958-9.438
		c-19.844,0-34.365,14.52-34.365,35.333c0,22.749,15.488,34.849,33.881,34.849c9.438,0,18.876-2.662,26.136-9.922L274.458,163.909z"
		/>
	<path fill="#FFFFFF" d="M382.146,59.847h28.314v119.308h-27.831l-1.452-17.425c-6.775,14.037-25.41,20.813-38.72,21.055
		c-35.333,0.242-61.469-21.538-61.469-63.405c0-41.141,27.347-62.679,62.195-62.438c15.972,0,31.219,7.502,37.994,19.36
		L382.146,59.847z M310.512,119.38c0,22.749,15.73,36.3,35.333,36.3c46.465,0,46.465-72.359,0-72.359
		C326.242,83.321,310.512,96.632,310.512,119.38z"/>
	<path fill="#FFFFFF" d="M459.827,59.847v62.437c0,18.15,9.922,31.944,28.799,31.944c18.15,0,30.492-15.246,30.492-33.396V59.847
		H548.4v119.55h-26.378l-1.937-16.215c-12.342,12.101-23.716,17.909-40.414,17.909c-28.557,0-49.369-21.539-49.369-58.565V59.847
		H459.827z"/>
	<path fill="#FFFFFF" d="M616.159,26.208v33.88h32.913V85.5h-33.155v51.547c0,11.374,6.293,16.939,15.488,16.939
		c4.599,0,9.923-1.451,14.278-3.63l8.229,25.169c-8.47,3.388-15.488,4.84-24.442,5.082c-25.895,0.968-42.835-13.794-42.835-43.561
		V85.5H564.37V60.089h22.265V29.354L616.159,26.208z"/>
	<path fill="#FFFFFF" d="M703.276,26.208c0,22.99-34.849,22.99-34.849,0S703.276,3.218,703.276,26.208z M671.09,59.363v119.792
		h29.524V59.363H671.09z"/>
</g>
<circle display="none" fill="#FFFFFF" cx="345.541" cy="120.135" r="29.054"/>
<polygon display="none" fill="#FFFFFF" points="340.356,102.547 357.943,119.934 340.356,137.723 "/>
<g display="none">
	<path display="inline" fill="#FFFFFF" d="M21.731,210.066l1.831-1.099c1.289,2.373,2.778,3.56,4.468,3.56
		c0.723,0,1.401-0.168,2.036-0.506c0.635-0.336,1.118-0.788,1.45-1.354s0.498-1.167,0.498-1.802c0-0.723-0.244-1.431-0.732-2.124
		c-0.674-0.957-1.904-2.109-3.691-3.457c-1.797-1.357-2.915-2.339-3.354-2.944c-0.762-1.016-1.143-2.114-1.143-3.296
		c0-0.938,0.225-1.792,0.674-2.563s1.082-1.379,1.897-1.824c0.815-0.443,1.702-0.666,2.659-0.666c1.016,0,1.965,0.252,2.849,0.754
		c0.884,0.504,1.819,1.429,2.805,2.776l-1.758,1.333c-0.811-1.074-1.501-1.782-2.073-2.124s-1.194-0.513-1.868-0.513
		c-0.869,0-1.58,0.264-2.131,0.791s-0.828,1.177-0.828,1.948c0,0.469,0.098,0.923,0.293,1.362s0.552,0.918,1.069,1.436
		c0.283,0.273,1.211,0.991,2.783,2.153c1.865,1.377,3.145,2.603,3.838,3.677s1.04,2.153,1.04,3.237c0,1.563-0.593,2.92-1.78,4.072
		s-2.629,1.729-4.329,1.729c-1.309,0-2.495-0.35-3.56-1.048C23.611,212.877,22.629,211.707,21.731,210.066z"/>
	<path display="inline" fill="#FFFFFF" d="M39.272,191.58c0.467,0,0.865,0.166,1.196,0.498s0.496,0.732,0.496,1.201
		c0,0.459-0.166,0.854-0.496,1.187s-0.729,0.498-1.196,0.498c-0.457,0-0.851-0.166-1.182-0.498s-0.496-0.728-0.496-1.187
		c0-0.469,0.165-0.869,0.496-1.201S38.815,191.58,39.272,191.58z M38.254,198.143h2.051v15.938h-2.051V198.143z"/>
	<path display="inline" fill="#FFFFFF" d="M52.581,199.886l-1.318,1.362c-1.097-1.064-2.169-1.597-3.216-1.597
		c-0.666,0-1.236,0.22-1.711,0.659c-0.475,0.439-0.712,0.952-0.712,1.538c0,0.518,0.196,1.011,0.587,1.479
		c0.392,0.479,1.214,1.04,2.466,1.685c1.527,0.791,2.564,1.553,3.112,2.285c0.538,0.742,0.807,1.577,0.807,2.505
		c0,1.309-0.46,2.417-1.379,3.325s-2.068,1.362-3.447,1.362c-0.919,0-1.797-0.2-2.633-0.601c-0.836-0.4-1.528-0.952-2.076-1.655
		l1.289-1.465c1.047,1.182,2.158,1.772,3.333,1.772c0.822,0,1.522-0.264,2.1-0.791c0.577-0.527,0.866-1.147,0.866-1.86
		c0-0.586-0.191-1.108-0.572-1.567c-0.382-0.449-1.243-1.016-2.584-1.699c-1.438-0.742-2.417-1.475-2.936-2.197
		s-0.778-1.548-0.778-2.476c0-1.211,0.413-2.217,1.24-3.018s1.871-1.201,3.133-1.201C49.617,197.732,51.094,198.45,52.581,199.886z"
		/>
	<path display="inline" fill="#FFFFFF" d="M58,192.225h2.051v5.918h3.252v1.772h-3.252v14.165H58v-14.165h-2.798v-1.772H58V192.225z
		"/>
	<path display="inline" fill="#FFFFFF" d="M79.797,208.792l1.729,0.908c-0.567,1.113-1.222,2.012-1.965,2.695
		c-0.743,0.684-1.579,1.204-2.507,1.56c-0.929,0.356-1.98,0.535-3.153,0.535c-2.6,0-4.633-0.852-6.099-2.557
		c-1.466-1.703-2.199-3.63-2.199-5.778c0-2.021,0.621-3.823,1.862-5.405c1.574-2.012,3.68-3.018,6.319-3.018
		c2.717,0,4.887,1.03,6.51,3.091c1.153,1.455,1.74,3.271,1.759,5.449H67.712c0.039,1.852,0.63,3.369,1.774,4.553
		s2.557,1.775,4.239,1.775c0.812,0,1.601-0.141,2.369-0.423c0.767-0.282,1.42-0.657,1.958-1.124
		C78.59,210.587,79.171,209.833,79.797,208.792z M79.797,204.5c-0.274-1.094-0.672-1.968-1.195-2.622
		c-0.523-0.654-1.215-1.182-2.075-1.582c-0.861-0.4-1.765-0.601-2.713-0.601c-1.564,0-2.909,0.503-4.033,1.509
		c-0.822,0.732-1.442,1.831-1.863,3.296H79.797z"/>
	<path display="inline" fill="#FFFFFF" d="M85.862,198.143h2.051v2.754c0.714-1.016,1.447-1.758,2.2-2.227
		c1.037-0.625,2.126-0.938,3.271-0.938c0.772,0,1.505,0.151,2.2,0.454s1.261,0.706,1.701,1.208c0.44,0.504,0.821,1.224,1.144,2.161
		c0.682-1.25,1.534-2.199,2.557-2.849c1.023-0.649,2.124-0.975,3.303-0.975c1.101,0,2.073,0.278,2.916,0.835
		s1.469,1.333,1.878,2.329s0.614,2.49,0.614,4.482v8.701H107.6v-8.701c0-1.709-0.122-2.883-0.365-3.523
		c-0.243-0.639-0.659-1.154-1.248-1.545s-1.292-0.586-2.11-0.586c-0.993,0-1.9,0.293-2.723,0.879
		c-0.823,0.586-1.424,1.367-1.803,2.344s-0.569,2.607-0.569,4.893v6.24h-2.051v-8.159c0-1.924-0.12-3.229-0.359-3.919
		c-0.239-0.688-0.657-1.239-1.252-1.654s-1.304-0.623-2.124-0.623c-0.947,0-1.833,0.285-2.659,0.857
		c-0.825,0.57-1.436,1.34-1.831,2.307s-0.593,2.446-0.593,4.438v6.753h-2.051V198.143z"/>
	<path display="inline" fill="#FFFFFF" d="M129.895,198.143v15.938h-2.021v-2.739c-0.859,1.045-1.824,1.831-2.893,2.358
		s-2.239,0.791-3.508,0.791c-2.256,0-4.182-0.817-5.779-2.453s-2.395-3.626-2.395-5.97c0-2.295,0.806-4.258,2.417-5.889
		s3.55-2.446,5.815-2.446c1.309,0,2.493,0.278,3.552,0.835s1.99,1.392,2.791,2.505v-2.93H129.895z M121.699,199.71
		c-1.141,0-2.195,0.28-3.161,0.842c-0.966,0.561-1.734,1.349-2.304,2.362c-0.571,1.015-0.856,2.088-0.856,3.219
		c0,1.122,0.288,2.195,0.863,3.22c0.575,1.024,1.349,1.821,2.319,2.392c0.971,0.571,2.012,0.856,3.124,0.856
		c1.122,0,2.185-0.283,3.19-0.849c1.004-0.565,1.777-1.331,2.319-2.297c0.541-0.966,0.812-2.054,0.812-3.264
		c0-1.843-0.607-3.384-1.822-4.623S123.475,199.71,121.699,199.71z"/>
	<path display="inline" fill="#FFFFFF" d="M158.723,191.99v22.09h-2.021v-2.739c-0.859,1.045-1.824,1.831-2.893,2.358
		s-2.239,0.791-3.508,0.791c-2.256,0-4.182-0.817-5.779-2.453s-2.395-3.626-2.395-5.97c0-2.295,0.806-4.258,2.417-5.889
		s3.55-2.446,5.815-2.446c1.309,0,2.493,0.278,3.552,0.835s1.99,1.392,2.791,2.505v-9.082H158.723z M150.527,199.71
		c-1.141,0-2.195,0.28-3.161,0.842c-0.966,0.561-1.734,1.349-2.304,2.362c-0.571,1.015-0.856,2.088-0.856,3.219
		c0,1.122,0.288,2.195,0.863,3.22c0.575,1.024,1.349,1.821,2.319,2.392c0.971,0.571,2.012,0.856,3.124,0.856
		c1.122,0,2.185-0.283,3.19-0.849c1.004-0.565,1.777-1.331,2.319-2.297c0.541-0.966,0.812-2.054,0.812-3.264
		c0-1.843-0.607-3.384-1.822-4.623S152.303,199.71,150.527,199.71z"/>
	<path display="inline" fill="#FFFFFF" d="M176.785,208.792l1.729,0.908c-0.567,1.113-1.222,2.012-1.965,2.695
		c-0.743,0.684-1.579,1.204-2.507,1.56c-0.929,0.356-1.98,0.535-3.153,0.535c-2.6,0-4.633-0.852-6.099-2.557
		c-1.466-1.703-2.199-3.63-2.199-5.778c0-2.021,0.621-3.823,1.862-5.405c1.574-2.012,3.68-3.018,6.319-3.018
		c2.717,0,4.887,1.03,6.51,3.091c1.153,1.455,1.74,3.271,1.759,5.449H164.7c0.039,1.852,0.63,3.369,1.774,4.553
		s2.557,1.775,4.239,1.775c0.812,0,1.601-0.141,2.369-0.423c0.767-0.282,1.42-0.657,1.958-1.124
		C175.577,210.587,176.159,209.833,176.785,208.792z M176.785,204.5c-0.274-1.094-0.672-1.968-1.195-2.622
		c-0.523-0.654-1.215-1.182-2.075-1.582c-0.861-0.4-1.765-0.601-2.713-0.601c-1.564,0-2.909,0.503-4.033,1.509
		c-0.822,0.732-1.442,1.831-1.863,3.296H176.785z"/>
	<path display="inline" fill="#FFFFFF" d="M206.638,201.453l-1.626,1.011c-1.405-1.865-3.321-2.798-5.75-2.798
		c-1.941,0-3.553,0.624-4.836,1.873c-1.283,1.248-1.924,2.766-1.924,4.551c0,1.16,0.295,2.253,0.885,3.277
		c0.59,1.024,1.4,1.819,2.429,2.385c1.029,0.565,2.183,0.849,3.46,0.849c2.341,0,4.252-0.933,5.735-2.798l1.626,1.069
		c-0.762,1.147-1.785,2.037-3.069,2.67c-1.284,0.632-2.747,0.948-4.387,0.948c-2.52,0-4.609-0.801-6.27-2.402s-2.49-3.55-2.49-5.845
		c0-1.543,0.388-2.976,1.165-4.3c0.776-1.322,1.843-2.355,3.201-3.098s2.876-1.113,4.556-1.113c1.055,0,2.073,0.161,3.054,0.483
		s1.814,0.742,2.498,1.26S206.16,200.652,206.638,201.453z"/>
	<path display="inline" fill="#FFFFFF" d="M218.123,197.732c2.456,0,4.49,0.889,6.104,2.666c1.467,1.621,2.201,3.54,2.201,5.757
		c0,2.227-0.775,4.173-2.326,5.837c-1.551,1.666-3.544,2.498-5.98,2.498c-2.446,0-4.444-0.832-5.995-2.498
		c-1.55-1.664-2.326-3.61-2.326-5.837c0-2.207,0.733-4.121,2.201-5.742C213.618,198.626,215.657,197.732,218.123,197.732z
		 M218.115,199.739c-1.705,0-3.17,0.63-4.396,1.89s-1.837,2.783-1.837,4.57c0,1.152,0.279,2.227,0.838,3.223
		s1.313,1.766,2.264,2.307c0.951,0.543,1.995,0.813,3.131,0.813s2.18-0.271,3.131-0.813c0.95-0.541,1.705-1.311,2.264-2.307
		s0.838-2.07,0.838-3.223c0-1.787-0.615-3.311-1.845-4.57S219.811,199.739,218.115,199.739z"/>
	<path display="inline" fill="#FFFFFF" d="M230.222,198.143h2.051v2.856c0.82-1.094,1.729-1.911,2.725-2.454
		c0.996-0.541,2.08-0.813,3.252-0.813c1.191,0,2.249,0.303,3.171,0.908s1.604,1.421,2.043,2.446s0.659,2.622,0.659,4.79v8.203
		h-2.051v-7.603c0-1.836-0.076-3.062-0.228-3.677c-0.238-1.055-0.694-1.848-1.368-2.381c-0.674-0.531-1.553-0.798-2.637-0.798
		c-1.241,0-2.352,0.41-3.333,1.23s-1.628,1.836-1.941,3.047c-0.195,0.791-0.293,2.236-0.293,4.336v5.845h-2.051V198.143z"/>
	<path display="inline" fill="#FFFFFF" d="M250.305,192.225h2.051v5.918h3.252v1.772h-3.252v14.165h-2.051v-14.165h-2.798v-1.772
		h2.798V192.225z"/>
	<path display="inline" fill="#FFFFFF" d="M257.908,198.143h2.095v2.329c0.625-0.918,1.284-1.604,1.978-2.058
		c0.693-0.455,1.416-0.682,2.168-0.682c0.566,0,1.172,0.181,1.816,0.542l-1.069,1.729c-0.43-0.186-0.791-0.278-1.084-0.278
		c-0.684,0-1.343,0.281-1.978,0.842c-0.635,0.563-1.118,1.434-1.45,2.615c-0.254,0.908-0.381,2.744-0.381,5.508v5.391h-2.095
		V198.143z"/>
	<path display="inline" fill="#FFFFFF" d="M275.251,197.732c2.456,0,4.49,0.889,6.104,2.666c1.467,1.621,2.201,3.54,2.201,5.757
		c0,2.227-0.775,4.173-2.326,5.837c-1.551,1.666-3.544,2.498-5.98,2.498c-2.446,0-4.444-0.832-5.995-2.498
		c-1.55-1.664-2.326-3.61-2.326-5.837c0-2.207,0.733-4.121,2.201-5.742C270.747,198.626,272.786,197.732,275.251,197.732z
		 M275.244,199.739c-1.705,0-3.17,0.63-4.396,1.89s-1.837,2.783-1.837,4.57c0,1.152,0.279,2.227,0.838,3.223
		s1.313,1.766,2.264,2.307c0.951,0.543,1.995,0.813,3.131,0.813s2.18-0.271,3.131-0.813c0.95-0.541,1.705-1.311,2.264-2.307
		s0.838-2.07,0.838-3.223c0-1.787-0.615-3.311-1.845-4.57S276.939,199.739,275.244,199.739z"/>
	<path display="inline" fill="#FFFFFF" d="M287.043,191.99h2.051v22.09h-2.051V191.99z"/>
	<path display="inline" fill="#FFFFFF" d="M317.571,191.99v22.09h-2.021v-2.739c-0.859,1.045-1.824,1.831-2.893,2.358
		s-2.239,0.791-3.508,0.791c-2.256,0-4.182-0.817-5.779-2.453s-2.395-3.626-2.395-5.97c0-2.295,0.806-4.258,2.417-5.889
		s3.55-2.446,5.815-2.446c1.309,0,2.493,0.278,3.552,0.835s1.99,1.392,2.791,2.505v-9.082H317.571z M309.375,199.71
		c-1.141,0-2.195,0.28-3.161,0.842c-0.966,0.561-1.734,1.349-2.304,2.362c-0.571,1.015-0.856,2.088-0.856,3.219
		c0,1.122,0.288,2.195,0.863,3.22c0.575,1.024,1.349,1.821,2.319,2.392c0.971,0.571,2.012,0.856,3.124,0.856
		c1.122,0,2.185-0.283,3.19-0.849c1.004-0.565,1.777-1.331,2.319-2.297c0.541-0.966,0.812-2.054,0.812-3.264
		c0-1.843-0.607-3.384-1.822-4.623S311.15,199.71,309.375,199.71z"/>
	<path display="inline" fill="#FFFFFF" d="M335.632,208.792l1.729,0.908c-0.567,1.113-1.222,2.012-1.965,2.695
		c-0.743,0.684-1.579,1.204-2.507,1.56c-0.929,0.356-1.98,0.535-3.153,0.535c-2.6,0-4.633-0.852-6.099-2.557
		c-1.466-1.703-2.199-3.63-2.199-5.778c0-2.021,0.621-3.823,1.862-5.405c1.574-2.012,3.68-3.018,6.319-3.018
		c2.717,0,4.887,1.03,6.51,3.091c1.153,1.455,1.74,3.271,1.759,5.449h-14.341c0.039,1.852,0.63,3.369,1.774,4.553
		s2.557,1.775,4.239,1.775c0.812,0,1.601-0.141,2.369-0.423c0.767-0.282,1.42-0.657,1.958-1.124
		C334.425,210.587,335.006,209.833,335.632,208.792z M335.632,204.5c-0.274-1.094-0.672-1.968-1.195-2.622
		c-0.523-0.654-1.215-1.182-2.075-1.582c-0.861-0.4-1.765-0.601-2.713-0.601c-1.564,0-2.909,0.503-4.033,1.509
		c-0.822,0.732-1.442,1.831-1.863,3.296H335.632z"/>
	<path display="inline" fill="#FFFFFF" d="M365.896,198.143v15.938h-2.021v-2.739c-0.859,1.045-1.824,1.831-2.894,2.358
		s-2.239,0.791-3.508,0.791c-2.256,0-4.182-0.817-5.779-2.453s-2.395-3.626-2.395-5.97c0-2.295,0.806-4.258,2.417-5.889
		s3.55-2.446,5.815-2.446c1.309,0,2.493,0.278,3.552,0.835c1.059,0.557,1.99,1.392,2.791,2.505v-2.93H365.896z M357.7,199.71
		c-1.141,0-2.195,0.28-3.161,0.842c-0.966,0.561-1.734,1.349-2.304,2.362c-0.571,1.015-0.856,2.088-0.856,3.219
		c0,1.122,0.288,2.195,0.863,3.22c0.575,1.024,1.349,1.821,2.319,2.392c0.971,0.571,2.012,0.856,3.124,0.856
		c1.122,0,2.185-0.283,3.19-0.849c1.003-0.565,1.777-1.331,2.318-2.297c0.543-0.966,0.813-2.054,0.813-3.264
		c0-1.843-0.607-3.384-1.82-4.623C360.97,200.329,359.476,199.71,357.7,199.71z"/>
	<path display="inline" fill="#FFFFFF" d="M370.246,198.143h2.051v7.441c0,1.816,0.098,3.066,0.293,3.75
		c0.294,0.977,0.854,1.748,1.681,2.314c0.826,0.566,1.812,0.85,2.956,0.85c1.144,0,2.114-0.275,2.911-0.828
		c0.798-0.551,1.348-1.276,1.651-2.175c0.205-0.615,0.308-1.919,0.308-3.911v-7.441h2.095v7.822c0,2.197-0.256,3.853-0.77,4.966
		c-0.512,1.113-1.284,1.985-2.314,2.614c-1.03,0.631-2.321,0.945-3.874,0.945s-2.849-0.314-3.89-0.945
		c-1.039-0.629-1.816-1.508-2.328-2.637c-0.514-1.127-0.77-2.824-0.77-5.09V198.143z"/>
	<path display="inline" fill="#FFFFFF" d="M390.534,192.225h2.051v5.918h3.252v1.772h-3.252v14.165h-2.051v-14.165h-2.798v-1.772
		h2.798V192.225z"/>
	<path display="inline" fill="#FFFFFF" d="M406.457,197.732c2.455,0,4.49,0.889,6.104,2.666c1.468,1.621,2.201,3.54,2.201,5.757
		c0,2.227-0.775,4.173-2.326,5.837c-1.551,1.666-3.544,2.498-5.979,2.498c-2.446,0-4.444-0.832-5.994-2.498
		c-1.551-1.664-2.326-3.61-2.326-5.837c0-2.207,0.733-4.121,2.201-5.742C401.952,198.626,403.992,197.732,406.457,197.732z
		 M406.45,199.739c-1.706,0-3.171,0.63-4.396,1.89c-1.226,1.26-1.838,2.783-1.838,4.57c0,1.152,0.279,2.227,0.838,3.223
		s1.313,1.766,2.264,2.307c0.951,0.543,1.994,0.813,3.132,0.813c1.136,0,2.18-0.271,3.131-0.813c0.95-0.541,1.705-1.311,2.264-2.307
		s0.838-2.07,0.838-3.223c0-1.787-0.615-3.311-1.845-4.57C409.607,200.369,408.146,199.739,406.45,199.739z"/>
	<path display="inline" fill="#FFFFFF" d="M434.436,198.143v15.938h-2.021v-2.739c-0.859,1.045-1.824,1.831-2.893,2.358
		c-1.07,0.527-2.239,0.791-3.509,0.791c-2.256,0-4.183-0.817-5.778-2.453c-1.598-1.636-2.396-3.626-2.396-5.97
		c0-2.295,0.806-4.258,2.417-5.889s3.55-2.446,5.815-2.446c1.309,0,2.492,0.278,3.552,0.835s1.99,1.392,2.791,2.505v-2.93H434.436z
		 M426.24,199.71c-1.142,0-2.195,0.28-3.161,0.842c-0.966,0.561-1.733,1.349-2.305,2.362c-0.57,1.015-0.855,2.088-0.855,3.219
		c0,1.122,0.288,2.195,0.863,3.22s1.349,1.821,2.319,2.392c0.97,0.571,2.012,0.856,3.123,0.856c1.122,0,2.186-0.283,3.19-0.849
		c1.004-0.565,1.777-1.331,2.318-2.297c0.542-0.966,0.813-2.054,0.813-3.264c0-1.843-0.607-3.384-1.821-4.623
		C429.51,200.329,428.015,199.71,426.24,199.71z"/>
	<path display="inline" fill="#FFFFFF" d="M439.079,198.143h2.051v2.93c0.81-1.113,1.741-1.948,2.795-2.505s2.229-0.835,3.526-0.835
		c2.264,0,4.2,0.815,5.81,2.446c1.61,1.631,2.415,3.594,2.415,5.889c0,2.344-0.798,4.334-2.393,5.97
		c-1.596,1.636-3.52,2.453-5.773,2.453c-1.268,0-2.434-0.264-3.497-0.791s-2.024-1.313-2.883-2.358v8.569h-2.051V198.143z
		 M447.282,199.71c-1.773,0-3.267,0.619-4.479,1.858s-1.819,2.78-1.819,4.623c0,1.21,0.271,2.298,0.812,3.264
		c0.54,0.966,1.314,1.731,2.323,2.297s2.072,0.849,3.193,0.849c1.101,0,2.136-0.285,3.105-0.856c0.97-0.57,1.741-1.367,2.316-2.392
		s0.862-2.098,0.862-3.22c0-1.131-0.285-2.204-0.855-3.219c-0.569-1.014-1.337-1.802-2.302-2.362
		C449.475,199.99,448.422,199.71,447.282,199.71z"/>
	<path display="inline" fill="#FFFFFF" d="M458.737,198.143h2.095v2.329c0.625-0.918,1.284-1.604,1.978-2.058
		c0.693-0.455,1.416-0.682,2.168-0.682c0.566,0,1.172,0.181,1.816,0.542l-1.069,1.729c-0.43-0.186-0.791-0.278-1.084-0.278
		c-0.684,0-1.343,0.281-1.978,0.842c-0.635,0.563-1.118,1.434-1.45,2.615c-0.254,0.908-0.381,2.744-0.381,5.508v5.391h-2.095
		V198.143z"/>
	<path display="inline" fill="#FFFFFF" d="M481.955,208.792l1.729,0.908c-0.567,1.113-1.222,2.012-1.965,2.695
		s-1.578,1.204-2.507,1.56c-0.929,0.356-1.979,0.535-3.152,0.535c-2.601,0-4.633-0.852-6.1-2.557
		c-1.466-1.703-2.199-3.63-2.199-5.778c0-2.021,0.62-3.823,1.862-5.405c1.573-2.012,3.68-3.018,6.318-3.018
		c2.718,0,4.888,1.03,6.51,3.091c1.153,1.455,1.74,3.271,1.76,5.449H469.87c0.039,1.852,0.631,3.369,1.774,4.553
		c1.145,1.184,2.557,1.775,4.238,1.775c0.812,0,1.602-0.141,2.369-0.423s1.42-0.657,1.958-1.124
		C480.747,210.587,481.329,209.833,481.955,208.792z M481.955,204.5c-0.273-1.094-0.672-1.968-1.195-2.622s-1.215-1.182-2.075-1.582
		s-1.765-0.601-2.714-0.601c-1.564,0-2.908,0.503-4.033,1.509c-0.821,0.732-1.442,1.831-1.862,3.296H481.955z"/>
	<path display="inline" fill="#FFFFFF" d="M488.034,198.143h2.051v2.856c0.82-1.094,1.729-1.911,2.725-2.454
		c0.996-0.541,2.08-0.813,3.252-0.813c1.191,0,2.248,0.303,3.172,0.908c0.922,0.605,1.604,1.421,2.043,2.446s0.659,2.622,0.659,4.79
		v8.203h-2.051v-7.603c0-1.836-0.076-3.062-0.229-3.677c-0.237-1.055-0.693-1.848-1.367-2.381c-0.674-0.531-1.553-0.798-2.637-0.798
		c-1.24,0-2.352,0.41-3.333,1.23c-0.982,0.82-1.629,1.836-1.941,3.047c-0.195,0.791-0.293,2.236-0.293,4.336v5.845h-2.051V198.143z"
		/>
	<path display="inline" fill="#FFFFFF" d="M522.238,191.99v22.09h-2.021v-2.739c-0.859,1.045-1.824,1.831-2.893,2.358
		c-1.07,0.527-2.239,0.791-3.509,0.791c-2.256,0-4.183-0.817-5.778-2.453c-1.598-1.636-2.396-3.626-2.396-5.97
		c0-2.295,0.806-4.258,2.417-5.889s3.55-2.446,5.815-2.446c1.309,0,2.492,0.278,3.552,0.835s1.99,1.392,2.791,2.505v-9.082H522.238z
		 M514.043,199.71c-1.142,0-2.195,0.28-3.161,0.842c-0.966,0.561-1.733,1.349-2.305,2.362c-0.57,1.015-0.855,2.088-0.855,3.219
		c0,1.122,0.288,2.195,0.863,3.22s1.349,1.821,2.319,2.392c0.97,0.571,2.012,0.856,3.123,0.856c1.122,0,2.186-0.283,3.19-0.849
		c1.004-0.565,1.777-1.331,2.318-2.297c0.542-0.966,0.813-2.054,0.813-3.264c0-1.843-0.607-3.384-1.821-4.623
		C517.313,200.329,515.817,199.71,514.043,199.71z"/>
	<path display="inline" fill="#FFFFFF" d="M527.593,191.58c0.466,0,0.865,0.166,1.195,0.498c0.331,0.332,0.496,0.732,0.496,1.201
		c0,0.459-0.165,0.854-0.496,1.187c-0.33,0.332-0.729,0.498-1.195,0.498c-0.458,0-0.852-0.166-1.182-0.498
		c-0.331-0.332-0.496-0.728-0.496-1.187c0-0.469,0.165-0.869,0.496-1.201C526.741,191.746,527.135,191.58,527.593,191.58z
		 M526.574,198.143h2.051v15.938h-2.051V198.143z"/>
	<path display="inline" fill="#FFFFFF" d="M531.584,198.143h11.704l-9.023,14.121h8.73v1.816h-12.261l9.016-14.136h-8.166V198.143z"
		/>
	<path display="inline" fill="#FFFFFF" d="M561.511,198.143v15.938h-2.021v-2.739c-0.859,1.045-1.824,1.831-2.893,2.358
		c-1.07,0.527-2.239,0.791-3.509,0.791c-2.256,0-4.183-0.817-5.778-2.453c-1.598-1.636-2.396-3.626-2.396-5.97
		c0-2.295,0.806-4.258,2.417-5.889s3.55-2.446,5.815-2.446c1.309,0,2.492,0.278,3.552,0.835s1.99,1.392,2.791,2.505v-2.93H561.511z
		 M553.315,199.71c-1.142,0-2.195,0.28-3.161,0.842c-0.966,0.561-1.733,1.349-2.305,2.362c-0.57,1.015-0.855,2.088-0.855,3.219
		c0,1.122,0.288,2.195,0.863,3.22s1.349,1.821,2.319,2.392c0.97,0.571,2.012,0.856,3.123,0.856c1.122,0,2.186-0.283,3.19-0.849
		c1.004-0.565,1.777-1.331,2.318-2.297c0.542-0.966,0.813-2.054,0.813-3.264c0-1.843-0.607-3.384-1.821-4.623
		C556.585,200.329,555.09,199.71,553.315,199.71z"/>
	<path display="inline" fill="#FFFFFF" d="M565.876,198.143h2.08v18.34c0,1.338-0.241,2.312-0.726,2.922
		c-0.482,0.61-1.145,0.916-1.984,0.916c-0.693,0-1.475-0.166-2.344-0.498v-1.846c0.547,0.283,1.04,0.425,1.479,0.425
		c0.557,0,0.972-0.229,1.245-0.688c0.166-0.293,0.249-0.903,0.249-1.831V198.143z M566.887,191.58c0.469,0,0.866,0.166,1.193,0.498
		s0.491,0.732,0.491,1.201c0,0.459-0.164,0.854-0.491,1.187s-0.725,0.498-1.193,0.498s-0.867-0.166-1.193-0.498
		c-0.328-0.332-0.491-0.728-0.491-1.187c0-0.469,0.163-0.869,0.491-1.201C566.02,191.746,566.418,191.58,566.887,191.58z"/>
	<path display="inline" fill="#FFFFFF" d="M585.637,208.792l1.729,0.908c-0.567,1.113-1.222,2.012-1.965,2.695
		s-1.578,1.204-2.507,1.56c-0.929,0.356-1.979,0.535-3.152,0.535c-2.601,0-4.633-0.852-6.1-2.557
		c-1.466-1.703-2.199-3.63-2.199-5.778c0-2.021,0.62-3.823,1.862-5.405c1.573-2.012,3.68-3.018,6.318-3.018
		c2.718,0,4.888,1.03,6.51,3.091c1.153,1.455,1.74,3.271,1.76,5.449h-14.341c0.039,1.852,0.631,3.369,1.774,4.553
		c1.145,1.184,2.557,1.775,4.238,1.775c0.812,0,1.602-0.141,2.369-0.423s1.42-0.657,1.958-1.124
		C584.429,210.587,585.011,209.833,585.637,208.792z M585.637,204.5c-0.273-1.094-0.672-1.968-1.195-2.622s-1.215-1.182-2.075-1.582
		s-1.765-0.601-2.714-0.601c-1.564,0-2.908,0.503-4.033,1.509c-0.821,0.732-1.442,1.831-1.862,3.296H585.637z"/>
	<path display="inline" fill="#FFFFFF" d="M600.732,191.58c0.466,0,0.865,0.166,1.195,0.498c0.331,0.332,0.496,0.732,0.496,1.201
		c0,0.459-0.165,0.854-0.496,1.187c-0.33,0.332-0.729,0.498-1.195,0.498c-0.458,0-0.852-0.166-1.182-0.498
		c-0.331-0.332-0.496-0.728-0.496-1.187c0-0.469,0.165-0.869,0.496-1.201C599.881,191.746,600.274,191.58,600.732,191.58z
		 M599.714,198.143h2.051v15.938h-2.051V198.143z"/>
	<path display="inline" fill="#FFFFFF" d="M606.027,198.143h2.051v2.856c0.82-1.094,1.729-1.911,2.725-2.454
		c0.996-0.541,2.08-0.813,3.252-0.813c1.191,0,2.248,0.303,3.172,0.908c0.922,0.605,1.604,1.421,2.043,2.446s0.659,2.622,0.659,4.79
		v8.203h-2.051v-7.603c0-1.836-0.076-3.062-0.229-3.677c-0.237-1.055-0.693-1.848-1.367-2.381c-0.674-0.531-1.553-0.798-2.637-0.798
		c-1.24,0-2.352,0.41-3.333,1.23c-0.982,0.82-1.629,1.836-1.941,3.047c-0.195,0.791-0.293,2.236-0.293,4.336v5.845h-2.051V198.143z"
		/>
	<path display="inline" fill="#FFFFFF" d="M626.11,192.225h2.051v5.918h3.252v1.772h-3.252v14.165h-2.051v-14.165h-2.798v-1.772
		h2.798V192.225z"/>
	<path display="inline" fill="#FFFFFF" d="M647.907,208.792l1.729,0.908c-0.567,1.113-1.222,2.012-1.965,2.695
		s-1.578,1.204-2.507,1.56c-0.929,0.356-1.979,0.535-3.152,0.535c-2.601,0-4.633-0.852-6.1-2.557
		c-1.466-1.703-2.199-3.63-2.199-5.778c0-2.021,0.62-3.823,1.862-5.405c1.573-2.012,3.68-3.018,6.318-3.018
		c2.718,0,4.888,1.03,6.51,3.091c1.153,1.455,1.74,3.271,1.76,5.449h-14.341c0.039,1.852,0.631,3.369,1.774,4.553
		c1.145,1.184,2.557,1.775,4.238,1.775c0.812,0,1.602-0.141,2.369-0.423s1.42-0.657,1.958-1.124
		C646.699,210.587,647.281,209.833,647.907,208.792z M647.907,204.5c-0.273-1.094-0.672-1.968-1.195-2.622s-1.215-1.182-2.075-1.582
		s-1.765-0.601-2.714-0.601c-1.564,0-2.908,0.503-4.033,1.509c-0.821,0.732-1.442,1.831-1.862,3.296H647.907z"/>
	<path display="inline" fill="#FFFFFF" d="M653.21,198.143h2.095v2.329c0.625-0.918,1.284-1.604,1.978-2.058
		c0.693-0.455,1.416-0.682,2.168-0.682c0.566,0,1.172,0.181,1.816,0.542l-1.069,1.729c-0.43-0.186-0.791-0.278-1.084-0.278
		c-0.684,0-1.343,0.281-1.978,0.842c-0.635,0.563-1.118,1.434-1.45,2.615c-0.254,0.908-0.381,2.744-0.381,5.508v5.391h-2.095
		V198.143z"/>
	<path display="inline" fill="#FFFFFF" d="M663.01,198.143h2.051v2.856c0.82-1.094,1.729-1.911,2.725-2.454
		c0.996-0.541,2.08-0.813,3.252-0.813c1.191,0,2.248,0.303,3.172,0.908c0.922,0.605,1.604,1.421,2.043,2.446s0.659,2.622,0.659,4.79
		v8.203h-2.051v-7.603c0-1.836-0.076-3.062-0.229-3.677c-0.237-1.055-0.693-1.848-1.367-2.381c-0.674-0.531-1.553-0.798-2.637-0.798
		c-1.24,0-2.352,0.41-3.333,1.23c-0.982,0.82-1.629,1.836-1.941,3.047c-0.195,0.791-0.293,2.236-0.293,4.336v5.845h-2.051V198.143z"
		/>
	<path display="inline" fill="#FFFFFF" d="M688.85,197.732c2.455,0,4.49,0.889,6.104,2.666c1.468,1.621,2.201,3.54,2.201,5.757
		c0,2.227-0.775,4.173-2.326,5.837c-1.551,1.666-3.544,2.498-5.979,2.498c-2.446,0-4.444-0.832-5.994-2.498
		c-1.551-1.664-2.326-3.61-2.326-5.837c0-2.207,0.733-4.121,2.201-5.742C684.345,198.626,686.385,197.732,688.85,197.732z
		 M688.843,199.739c-1.706,0-3.171,0.63-4.396,1.89c-1.226,1.26-1.838,2.783-1.838,4.57c0,1.152,0.279,2.227,0.838,3.223
		s1.313,1.766,2.264,2.307c0.951,0.543,1.994,0.813,3.132,0.813c1.136,0,2.18-0.271,3.131-0.813c0.95-0.541,1.705-1.311,2.264-2.307
		s0.838-2.07,0.838-3.223c0-1.787-0.615-3.311-1.845-4.57C692,200.369,690.538,199.739,688.843,199.739z"/>
</g>
<path fill="#FFFFFF" d="M345.509,149.19c-15.935,0.086-29.284-13.06-29.053-29.484c0.221-15.702,13.088-28.776,29.378-28.624
	c16.088,0.15,29.105,13.4,28.775,29.676C374.288,136.625,361.222,149.288,345.509,149.19z M357.963,119.944
	c-5.869-5.8-11.699-11.562-17.579-17.373c0,11.752,0,23.407,0,35.148C346.27,131.769,352.089,125.885,357.963,119.944z"/>
</svg>
